<svg width="1920" height="473" viewBox="0 0 1920 473" fill="none" xmlns="http://www.w3.org/2000/svg">
<path d="M154.231 158.945L11.125 98.2207C5.84928 95.982 0 99.8541 0 105.585V394.179C0 397.402 1.93468 400.311 4.90763 401.557L153.437 463.809C178.15 474.167 205.986 474.174 230.704 463.827L610.862 304.698C635.615 294.337 663.494 294.359 688.231 304.759L1068.32 464.558C1091.91 474.474 1118.39 474.972 1142.34 465.952L1363.3 382.696C1365.33 381.932 1367.58 382.024 1369.54 382.952L1515.97 452.247C1540.61 463.907 1568.94 465.004 1594.41 455.283L1914.85 332.965C1917.95 331.782 1920 328.808 1920 325.491V40.3257C1920 34.6635 1914.28 30.7933 1909.02 32.9001L1598.6 157.338C1570.72 168.515 1539.29 166.565 1513 152.028L1407.87 93.8941C1381.67 79.4014 1350.34 77.4173 1322.52 88.4873L1142.1 160.262C1118.31 169.725 1091.8 169.705 1068.03 160.207L686.582 7.79336C662.81 -1.70533 636.3 -1.72532 612.513 7.73751L230.257 159.807C205.79 169.541 178.471 169.231 154.231 158.945Z" fill="#E6F6EE" fill-opacity="0.5"/>
</svg>
